<svg xmlns="http://www.w3.org/2000/svg" width="24" height="23.393" viewBox="0 0 24 23.393">
	<path id="Path_5" data-name="Path 5" d="M17.279,32.433a1.043,1.043,0,0,0,.631-.958V28.658a2.687,2.687,0,0,1,.021-.318l-.021.005H16.031a1.879,1.879,0,0,1-1.774-.939c-.365-.678-.522-1.826-1.461-2.452-.157-.1-.052-.261.261-.261a2.858,2.858,0,0,1,1.409,1.043,2.2,2.2,0,0,0,1.774,1.043,5.664,5.664,0,0,0,2.411-.29,2.486,2.486,0,0,1,1.867-1.276V25.2c-2.957-.095-4.846-1.078-5.726-2.6a31.488,31.488,0,0,0-4.527.369q-.045-.256-.079-.515a31.962,31.962,0,0,1,4.354-.373,4.259,4.259,0,0,1-.152-.443,33.717,33.717,0,0,0-4.271.051c-.01-.173-.025-.346-.027-.521a34.183,34.183,0,0,1,4.183-.058,5.13,5.13,0,0,1-.068-.805,4.492,4.492,0,0,1,.887-2.609c-.261-.887-.626-2.765.1-3.443a4.346,4.346,0,0,1,2.87,1.1,7.732,7.732,0,0,1,2.973-.574,7.293,7.293,0,0,1,2.922.574,4.346,4.346,0,0,1,2.87-1.1c.783.73.365,2.609.1,3.443a4,4,0,0,1,.835,2.609,5.2,5.2,0,0,1-.057.735,34.465,34.465,0,0,1,4.28.053c0,.176-.017.347-.027.521a33.8,33.8,0,0,0-4.361-.046,4.316,4.316,0,0,1-.17.511,32.428,32.428,0,0,1,4.46.359q-.034.26-.079.515a31.8,31.8,0,0,0-4.633-.356c-.869,1.5-2.723,2.481-5.623,2.6v.016c1.357,0,2.609,2.035,2.609,3.443v2.817a1.043,1.043,0,0,0,.631.958,12,12,0,1,0-7.522,0Z" transform="translate(-9.04 -9.04)" />
</svg>
