<svg xmlns="http://www.w3.org/2000/svg" viewBox="0 0 165.674 1080">
	<rect width="54.575" height="57" transform="translate(55.55 1023)" fill="#2c2f33" />
	<rect width="55.55" height="57" transform="translate(110.125 1023)" fill="#2c2f33" />
	<rect width="55.55" height="57" transform="translate(0 1023)" fill="#2c2f33" />
	<rect width="55.55" height="57" transform="translate(110.125 341)" fill="#2c2f33" />
	<rect width="54.575" height="56" transform="translate(55.55 853)" fill="#2c2f33" />
	<rect width="55.55" height="56" transform="translate(110.125 853)" fill="#2c2f33" />
	<rect width="54.575" height="56" transform="translate(55.55 171)" fill="#2c2f33" />
	<rect width="55.55" height="56" transform="translate(110.125 171)" fill="#2c2f33" />
	<rect width="54.575" height="57" transform="translate(55.55 682)" fill="#2c2f33" />
	<rect width="55.55" height="57" transform="translate(110.125 682)" fill="#2c2f33" />
	<rect width="54.575" height="57" transform="translate(55.55)" fill="#2c2f33" />
	<rect width="55.55" height="57" transform="translate(110.125)" fill="#2c2f33" />
	<rect width="54.575" height="56" transform="translate(55.55 512)" fill="#2c2f33" />
	<rect width="55.55" height="56" transform="translate(110.125 512)" fill="#2c2f33" />
	<rect width="54.575" height="57" transform="translate(55.55 966)" fill="#2c2f33" />
	<rect width="55.55" height="57" transform="translate(110.125 966)" fill="#2c2f33" />
	<rect width="54.575" height="57" transform="translate(55.55 284)" fill="#2c2f33" />
	<rect width="54.575" height="57" transform="translate(55.55 796)" fill="#2c2f33" />
	<rect width="54.575" height="57" transform="translate(55.55 114)" fill="#2c2f33" />
	<rect width="55.55" height="57" transform="translate(110.125 625)" fill="#2c2f33" />
	<rect width="55.55" height="57" transform="translate(0 625)" fill="#2c2f33" />
	<rect width="55.55" height="57" transform="translate(110.125 455)" fill="#2c2f33" />
	<rect width="55.55" height="57" transform="translate(0 455)" fill="#2c2f33" />
	<rect width="55.55" height="57" transform="translate(110.125 909)" fill="#2c2f33" />
	<rect width="55.55" height="57" transform="translate(0 909)" fill="#2c2f33" />
	<rect width="55.55" height="57" transform="translate(110.125 227)" fill="#2c2f33" />
	<rect width="55.55" height="57" transform="translate(0 227)" fill="#2c2f33" />
	<rect width="55.55" height="57" transform="translate(110.125 739)" fill="#2c2f33" />
	<rect width="55.55" height="57" transform="translate(110.125 57)" fill="#2c2f33" />
	<rect width="55.55" height="57" transform="translate(0 57)" fill="#2c2f33" />
	<rect width="54.575" height="57" transform="translate(55.55 398)" fill="#2c2f33" />
	<rect width="55.55" height="57" transform="translate(110.125 398)" fill="#2c2f33" />
</svg>
